<?xml version="1.0" ?>
<!-- Uploaded to: SVG Repo, www.svgrepo.com, Generator: SVG Repo Mixer Tools -->
<svg width="800px" height="800px" viewBox="0 0 64 64" xmlns="http://www.w3.org/2000/svg">
<defs>
<style>.cls-1,.cls-3{fill:#eaafa5;}.cls-1{fill-opacity:1;}.cls-2{fill:#f1cbc6;}.cls-4{fill:#665e66;}.cls-5{fill:#544f57;}.cls-6{fill:#756e78;}.cls-7{fill:#eaaadd;}.cls-8{fill:#e490d0;}.cls-9{fill:#f6f9f9;}.cls-10{fill:#e7ecf1;}.cls-11{fill:#f6e266;}.cls-12{fill:#f4dd45;}.cls-13{fill:#ecc32e;}</style>
</defs>
<g data-name="Winter Avatar" id="Winter_Avatar-8">
<path class="cls-1" d="M44.49,33.27a4.71,4.71,0,0,0,1-9.32H18.53a4.71,4.71,0,0,0,1,9.32Z" id="path56333-2"/>
<path class="cls-2" d="M32,8A13.1,13.1,0,0,1,45.14,20l.52,6.33a13.71,13.71,0,1,1-27.32,0L18.86,20A13.1,13.1,0,0,1,32,8Z" id="path56337-3"/>
<path class="cls-3" d="M40.4,17.09A13.9,13.9,0,0,1,41,20l.32,3.94.2,2.39A13.71,13.71,0,0,1,29.92,41a13,13,0,0,0,2.08.16A13.7,13.7,0,0,0,45.66,26.33l-.2-2.39Z" id="path56339-7"/>
<path class="cls-4" d="M39.8,10.52A13,13,0,0,1,45.14,20l.32,4C38.89,25.87,33.18,19,33.18,19l-.68-4.32Z" id="path56341-5"/>
<path class="cls-5" d="M32,8a13,13,0,0,0-2.08.16A13.1,13.1,0,0,1,41,20l.32,3.94,0,.17a8.74,8.74,0,0,0,4.14-.17L45.14,20A13.09,13.09,0,0,0,32,8Z" id="path56343-9"/>
<path class="cls-6" d="M39.8,10.52A13.28,13.28,0,0,0,32,8,13.1,13.1,0,0,0,18.86,20l-.41,5A25.68,25.68,0,0,0,39.8,10.52Z" id="path56345-2"/>
<path class="cls-4" d="M32,8a13,13,0,0,0-2.08.16,13.08,13.08,0,0,1,8.42,5,18.94,18.94,0,0,0,1.46-2.65A13.27,13.27,0,0,0,32,8Z" id="path56347-2"/>
<path class="cls-7" d="M18.59,43.77a6.08,6.08,0,0,0-4.52,5.88v4.74A1.61,1.61,0,0,0,15.68,56H26.12l2.82-6.12-2.82-6.11Zm19.29,0-2.82,6.11L37.88,56H48.32a1.61,1.61,0,0,0,1.61-1.61V49.65a6.08,6.08,0,0,0-4.52-5.88Z" id="path170677-1"/>
<path class="cls-8" d="M40.83,43.77a6.07,6.07,0,0,1,4.52,5.88v4.74A1.61,1.61,0,0,1,43.74,56h4.58a1.6,1.6,0,0,0,1.6-1.61V49.65a6.07,6.07,0,0,0-4.51-5.88Z" id="path170679-8"/>
<path class="cls-9" d="M26.12,40.79H37.88V56H26.12Z" id="rect63198"/>
<path class="cls-10" d="M26.12,40.79V48.6a32,32,0,0,0,5.22.55v2a3.48,3.48,0,0,0,3.45,3.45h3.09V40.79Z" id="path64094"/>
<path class="cls-11" d="M40.84,46a33.61,33.61,0,0,0,3.86-1.41,1.62,1.62,0,0,0,.68-2.13l-1.24-3.92a1.68,1.68,0,0,0-2.26-.74c-.44.18-1,.39-1.57.59l-7.06,1.43c-.41,0-.83,0-1.25,0a26.59,26.59,0,0,1-9.88-2.06,1.68,1.68,0,0,0-2.26.74c-.41,1.31-.83,2.61-1.24,3.92a1.62,1.62,0,0,0,.68,2.13A32.49,32.49,0,0,0,32,47.29c.42,0,.84,0,1.25,0Z" id="path155715-7"/>
<path class="cls-12" d="M42.54,37.6a1.92,1.92,0,0,0-.66.15c-.44.18-1,.39-1.57.59l-.38.08a1.48,1.48,0,0,1,1.56.89l1.25,3.92a1.63,1.63,0,0,1-.68,2.13c-.46.2-1,.43-1.64.66l.42-.07a33.61,33.61,0,0,0,3.86-1.41,1.62,1.62,0,0,0,.68-2.13l-1.24-3.92A1.5,1.5,0,0,0,42.54,37.6Z" id="path155717-9"/>
<path class="cls-12" d="M34.79,38h4.5a1.54,1.54,0,0,1,1.54,1.54V51.16a1.54,1.54,0,0,1-1.54,1.54h-4.5a1.54,1.54,0,0,1-1.54-1.54V39.5A1.54,1.54,0,0,1,34.79,38Z" id="path155719-2"/>
<path class="cls-13" d="M37.18,38a1.54,1.54,0,0,1,1.54,1.54V51.16a1.54,1.54,0,0,1-1.54,1.54h2.11a1.54,1.54,0,0,0,1.54-1.54V39.5A1.54,1.54,0,0,0,39.29,38Z" id="path155721-0"/>
<path d="M18.91,38.19l-1.24,3.92a3.55,3.55,0,0,0-.17,1,7.08,7.08,0,0,0-4.43,6.55v4.74A2.61,2.61,0,0,0,15.68,57H48.32a2.6,2.6,0,0,0,2.6-2.61V49.65A7.07,7.07,0,0,0,46.5,43.1a3.55,3.55,0,0,0-.17-1l-1.24-3.92a2.2,2.2,0,0,0-1.21-1.33,2.41,2.41,0,0,0-.45-.16A15.48,15.48,0,0,0,45,34.22a5.69,5.69,0,0,0,1.37-11l-.27-3.28a14.2,14.2,0,0,0-28.28,0l-.27,3.28a5.69,5.69,0,0,0,1.37,11,14.88,14.88,0,0,0,1.62,2.48,2.27,2.27,0,0,0-.46.16A2.2,2.2,0,0,0,18.91,38.19Zm.66,4.52,1.25-3.91s0-.08.14-.13a1,1,0,0,1,.77,0c.45.19,1,.4,1.66.62h0A27.11,27.11,0,0,0,32,40.81h.25v5.48H32a31.35,31.35,0,0,1-12.3-2.67C19.35,43.47,19.53,42.84,19.57,42.71Zm-.24-16.3.05-.54a26.34,26.34,0,0,0,13.67-5.49c1.47,1.5,5.3,4.91,10,4.91a8.77,8.77,0,0,0,1.52-.14l.1,1.26A12.63,12.63,0,0,1,40.2,37.13a2.49,2.49,0,0,0-.91-.17h-4.5a2.53,2.53,0,0,0-2.43,1.84H32a24.71,24.71,0,0,1-7.84-1.37A12.67,12.67,0,0,1,19.33,26.41ZM32,48.29h.25v2.88a2.54,2.54,0,0,0,2.54,2.54h2.09V55H27.12V47.87A30,30,0,0,0,32,48.29Zm2.79,3.41a.54.54,0,0,1-.54-.54V39.5a.53.53,0,0,1,.54-.54h4.5a.53.53,0,0,1,.54.54V51.16a.54.54,0,0,1-.54.54ZM15.07,54.39V49.65A5.08,5.08,0,0,1,18.21,45a2.3,2.3,0,0,0,.69.48,34.2,34.2,0,0,0,6.22,2V55H15.68A.62.62,0,0,1,15.07,54.39Zm30-8.94a2.25,2.25,0,0,0,.68-.48,5.07,5.07,0,0,1,3.13,4.68v4.74a.61.61,0,0,1-.6.61H38.88V53.7h.41a2.54,2.54,0,0,0,2.54-2.54V46.68A33.6,33.6,0,0,0,45.11,45.45Zm-.68-2.74c0,.13.22.76-.13.91-.58.26-1.43.61-2.47,1V39.5a2.11,2.11,0,0,0-.09-.62l.53-.21a1,1,0,0,1,.77,0c.12,0,.14.11.14.13Zm3.78-14.15A3.72,3.72,0,0,1,46,32a14.73,14.73,0,0,0,.66-5.7l-.06-.74A3.74,3.74,0,0,1,48.21,28.56Zm-4.07-8.48.26,3.07c-4.37.78-8.32-2.58-9.81-4.07a27.78,27.78,0,0,0,5.55-7A12,12,0,0,1,44.14,20.08ZM32,9a12.24,12.24,0,0,1,6.53,1.86,24.51,24.51,0,0,1-19,13l.31-3.76A12.06,12.06,0,0,1,32,9ZM15.79,28.56a3.74,3.74,0,0,1,1.61-3l-.06.74A14.73,14.73,0,0,0,18,32,3.72,3.72,0,0,1,15.79,28.56Z"/>
<path d="M27.46,29.79a1,1,0,0,0,1-1V27.44a1,1,0,0,0-2,0v1.35A1,1,0,0,0,27.46,29.79Z"/>
<path d="M36.54,29.79a1,1,0,0,0,1-1V27.44a1,1,0,0,0-2,0v1.35A1,1,0,0,0,36.54,29.79Z"/>
<path d="M27.29,33.9a1,1,0,0,0,.24,1.39,8.62,8.62,0,0,0,8.94,0,1,1,0,0,0-1.15-1.64,6.64,6.64,0,0,1-6.64,0A1,1,0,0,0,27.29,33.9Z"/>
</g>
</svg>